<svg id="visual" viewBox="0 0 960 540" width="960" height="540" xmlns="http://www.w3.org/2000/svg" xmlns:xlink="http://www.w3.org/1999/xlink" version="1.1"><path d="M0 384L12.3 386C24.7 388 49.3 392 74 386.7C98.7 381.3 123.3 366.7 148 365.7C172.7 364.7 197.3 377.3 221.8 380.5C246.3 383.7 270.7 377.3 295.2 372.3C319.7 367.3 344.3 363.7 369 367.5C393.7 371.3 418.3 382.7 443 384.7C467.7 386.7 492.3 379.3 517 372.8C541.7 366.3 566.3 360.7 591 364.2C615.7 367.7 640.3 380.3 664.8 383.2C689.3 386 713.7 379 738.2 376.2C762.7 373.3 787.3 374.7 812 379.5C836.7 384.3 861.3 392.7 886 395.8C910.7 399 935.3 397 947.7 396L960 395L960 541L947.7 541C935.3 541 910.7 541 886 541C861.3 541 836.7 541 812 541C787.3 541 762.7 541 738.2 541C713.7 541 689.3 541 664.8 541C640.3 541 615.7 541 591 541C566.3 541 541.7 541 517 541C492.3 541 467.7 541 443 541C418.3 541 393.7 541 369 541C344.3 541 319.7 541 295.2 541C270.7 541 246.3 541 221.8 541C197.3 541 172.7 541 148 541C123.3 541 98.7 541 74 541C49.3 541 24.7 541 12.3 541L0 541Z" fill="#007cff"></path><path d="M0 374L12.3 375.8C24.7 377.7 49.3 381.3 74 383C98.7 384.7 123.3 384.3 148 385.8C172.7 387.3 197.3 390.7 221.8 386.8C246.3 383 270.7 372 295.2 373.3C319.7 374.7 344.3 388.3 369 394.3C393.7 400.3 418.3 398.7 443 394C467.7 389.3 492.3 381.7 517 380.7C541.7 379.7 566.3 385.3 591 389.3C615.7 393.3 640.3 395.7 664.8 394.8C689.3 394 713.7 390 738.2 390.8C762.7 391.7 787.3 397.3 812 398.8C836.7 400.3 861.3 397.7 886 393C910.7 388.3 935.3 381.7 947.7 378.3L960 375L960 541L947.7 541C935.3 541 910.7 541 886 541C861.3 541 836.7 541 812 541C787.3 541 762.7 541 738.2 541C713.7 541 689.3 541 664.8 541C640.3 541 615.7 541 591 541C566.3 541 541.7 541 517 541C492.3 541 467.7 541 443 541C418.3 541 393.7 541 369 541C344.3 541 319.7 541 295.2 541C270.7 541 246.3 541 221.8 541C197.3 541 172.7 541 148 541C123.3 541 98.7 541 74 541C49.3 541 24.7 541 12.3 541L0 541Z" fill="#1962d7"></path><path d="M0 395L12.3 397.7C24.7 400.3 49.3 405.7 74 411.8C98.7 418 123.3 425 148 431C172.7 437 197.3 442 221.8 436.7C246.3 431.3 270.7 415.7 295.2 407.3C319.7 399 344.3 398 369 403.3C393.7 408.7 418.3 420.3 443 420.8C467.7 421.3 492.3 410.7 517 403.8C541.7 397 566.3 394 591 393.8C615.7 393.7 640.3 396.3 664.8 399.5C689.3 402.7 713.7 406.3 738.2 406C762.7 405.7 787.3 401.3 812 401C836.7 400.7 861.3 404.3 886 403.3C910.7 402.3 935.3 396.7 947.7 393.8L960 391L960 541L947.7 541C935.3 541 910.7 541 886 541C861.3 541 836.7 541 812 541C787.3 541 762.7 541 738.2 541C713.7 541 689.3 541 664.8 541C640.3 541 615.7 541 591 541C566.3 541 541.7 541 517 541C492.3 541 467.7 541 443 541C418.3 541 393.7 541 369 541C344.3 541 319.7 541 295.2 541C270.7 541 246.3 541 221.8 541C197.3 541 172.7 541 148 541C123.3 541 98.7 541 74 541C49.3 541 24.7 541 12.3 541L0 541Z" fill="#1b4ab1"></path><path d="M0 455L12.3 456.5C24.7 458 49.3 461 74 459.3C98.7 457.7 123.3 451.3 148 448.3C172.7 445.3 197.3 445.7 221.8 448.7C246.3 451.7 270.7 457.3 295.2 454.2C319.7 451 344.3 439 369 439.8C393.7 440.7 418.3 454.3 443 455.3C467.7 456.3 492.3 444.7 517 440.2C541.7 435.7 566.3 438.3 591 443.2C615.7 448 640.3 455 664.8 452.3C689.3 449.7 713.7 437.3 738.2 432.7C762.7 428 787.3 431 812 431C836.7 431 861.3 428 886 429.2C910.7 430.3 935.3 435.7 947.7 438.3L960 441L960 541L947.7 541C935.3 541 910.7 541 886 541C861.3 541 836.7 541 812 541C787.3 541 762.7 541 738.2 541C713.7 541 689.3 541 664.8 541C640.3 541 615.7 541 591 541C566.3 541 541.7 541 517 541C492.3 541 467.7 541 443 541C418.3 541 393.7 541 369 541C344.3 541 319.7 541 295.2 541C270.7 541 246.3 541 221.8 541C197.3 541 172.7 541 148 541C123.3 541 98.7 541 74 541C49.3 541 24.7 541 12.3 541L0 541Z" fill="#16338c"></path><path d="M0 481L12.3 483C24.7 485 49.3 489 74 491C98.7 493 123.3 493 148 488.2C172.7 483.3 197.3 473.7 221.8 467.2C246.3 460.7 270.7 457.3 295.2 456.8C319.7 456.3 344.3 458.7 369 462.7C393.7 466.7 418.3 472.3 443 476.5C467.7 480.7 492.3 483.3 517 485.8C541.7 488.3 566.3 490.7 591 488.7C615.7 486.7 640.3 480.3 664.8 474.7C689.3 469 713.7 464 738.2 461.3C762.7 458.7 787.3 458.3 812 463.2C836.7 468 861.3 478 886 479C910.7 480 935.3 472 947.7 468L960 464L960 541L947.7 541C935.3 541 910.7 541 886 541C861.3 541 836.7 541 812 541C787.3 541 762.7 541 738.2 541C713.7 541 689.3 541 664.8 541C640.3 541 615.7 541 591 541C566.3 541 541.7 541 517 541C492.3 541 467.7 541 443 541C418.3 541 393.7 541 369 541C344.3 541 319.7 541 295.2 541C270.7 541 246.3 541 221.8 541C197.3 541 172.7 541 148 541C123.3 541 98.7 541 74 541C49.3 541 24.7 541 12.3 541L0 541Z" fill="#0b1d69"></path><path d="M0 504L12.3 502.7C24.7 501.3 49.3 498.7 74 496.3C98.7 494 123.3 492 148 490.3C172.7 488.7 197.3 487.3 221.8 488.7C246.3 490 270.7 494 295.2 497C319.7 500 344.3 502 369 500.7C393.7 499.3 418.3 494.7 443 492.7C467.7 490.7 492.3 491.3 517 493.7C541.7 496 566.3 500 591 500C615.7 500 640.3 496 664.8 497.5C689.3 499 713.7 506 738.2 507C762.7 508 787.3 503 812 502.2C836.7 501.3 861.3 504.7 886 506.2C910.7 507.7 935.3 507.3 947.7 507.2L960 507L960 541L947.7 541C935.3 541 910.7 541 886 541C861.3 541 836.7 541 812 541C787.3 541 762.7 541 738.2 541C713.7 541 689.3 541 664.8 541C640.3 541 615.7 541 591 541C566.3 541 541.7 541 517 541C492.3 541 467.7 541 443 541C418.3 541 393.7 541 369 541C344.3 541 319.7 541 295.2 541C270.7 541 246.3 541 221.8 541C197.3 541 172.7 541 148 541C123.3 541 98.7 541 74 541C49.3 541 24.7 541 12.3 541L0 541Z" fill="#000748"></path><path d="M243.4 0C239.3 46.5 235.2 93 210.8 121.7C186.3 150.3 141.5 161.1 103 178.4C64.5 195.7 32.2 219.5 0 243.4L0 0Z" fill="#1b4ab1"></path></svg>